<?xml version="1.0" encoding="UTF-8" standalone="no"?>
<svg
   xmlns:dc="http://purl.org/dc/elements/1.1/"
   xmlns:cc="http://creativecommons.org/ns#"
   xmlns:rdf="http://www.w3.org/1999/02/22-rdf-syntax-ns#"
   xmlns:svg="http://www.w3.org/2000/svg"
   xmlns="http://www.w3.org/2000/svg"
   xmlns:sodipodi="http://sodipodi.sourceforge.net/DTD/sodipodi-0.dtd"
   xmlns:inkscape="http://www.inkscape.org/namespaces/inkscape"
   width="128pt"
   height="128pt"
   viewBox="0 0 128 128"
   version="1.1"
   id="svg2"
   inkscape:version="0.48.4 r9939"
   sodipodi:docname="jam.svg">
  <metadata
     id="metadata40">
    <rdf:RDF>
      <cc:Work
         rdf:about="">
        <dc:format>image/svg+xml</dc:format>
        <dc:type
           rdf:resource="http://purl.org/dc/dcmitype/StillImage" />
      </cc:Work>
    </rdf:RDF>
  </metadata>
  <defs
     id="defs38" />
  <sodipodi:namedview
     pagecolor="#ffffff"
     bordercolor="#666666"
     borderopacity="1"
     objecttolerance="10"
     gridtolerance="10"
     guidetolerance="10"
     inkscape:pageopacity="0"
     inkscape:pageshadow="2"
     inkscape:window-width="1374"
     inkscape:window-height="974"
     id="namedview36"
     showgrid="false"
     inkscape:zoom="1.475"
     inkscape:cx="80"
     inkscape:cy="80"
     inkscape:window-x="440"
     inkscape:window-y="224"
     inkscape:window-maximized="0"
     inkscape:current-layer="svg2" />
  <path
     d=" M 0.00 0.00 L 128.00 0.00 L 128.00 128.00 L 0.00 128.00 L 0.00 0.00 Z"
     id="path4"
     fill="#ffffff" />
  <path
     fill="#181818"
     d=" M 33.29 11.87 C 42.16 6.50 52.85 5.47 63.01 5.37 C 73.81 5.34 85.25 6.16 94.72 11.87 C 94.87 13.70 95.02 15.53 95.17 17.37 C 98.47 19.11 102.33 21.04 103.44 24.93 C 104.10 27.64 102.02 29.75 100.39 31.59 C 100.44 35.72 98.92 40.54 101.91 44.01 C 112.24 57.15 116.32 74.72 113.16 91.10 C 112.51 98.40 109.41 105.22 105.27 111.17 C 99.87 117.59 91.07 118.93 83.35 120.67 C 82.57 120.12 81.79 119.56 81.02 119.01 C 87.71 118.17 94.63 116.86 100.43 113.23 C 104.47 110.76 106.33 106.22 108.41 102.19 C 110.91 97.24 111.28 91.61 112.07 86.22 C 113.83 71.52 109.46 56.35 100.31 44.74 C 97.55 41.43 98.27 36.95 98.35 32.98 C 97.59 33.29 96.84 33.61 96.09 33.92 C 96.12 36.13 96.19 38.35 96.30 40.55 C 90.45 44.78 83.31 46.72 76.32 48.05 C 70.56 48.98 64.69 49.92 58.86 49.07 C 49.44 47.93 39.61 46.14 31.70 40.56 C 31.81 38.34 31.88 36.13 31.91 33.92 C 31.16 33.60 30.40 33.29 29.65 32.98 C 29.84 37.20 30.35 41.96 27.26 45.36 C 17.29 58.08 13.55 75.09 16.57 90.91 C 17.16 97.85 20.13 104.30 23.99 110.01 C 28.20 115.10 34.95 116.74 41.11 118.12 C 52.90 120.38 65.08 122.12 77.00 119.70 C 78.92 118.94 80.60 119.79 82.09 120.95 C 74.38 121.69 66.66 123.43 58.88 122.48 C 50.54 121.60 42.16 120.55 34.11 118.10 C 28.97 116.54 23.81 113.71 21.16 108.84 C 19.37 105.58 17.47 102.33 16.36 98.76 C 13.42 86.97 12.63 74.32 16.37 62.61 C 18.04 57.27 20.55 52.22 23.56 47.52 C 25.28 44.87 27.86 42.50 28.09 39.16 C 27.99 36.63 27.73 34.11 27.59 31.58 C 25.97 29.74 23.90 27.62 24.56 24.92 C 25.67 21.05 29.51 19.10 32.82 17.39 C 32.96 15.55 33.12 13.71 33.29 11.87 Z"
     id="path6" />
  <path
     fill="#ff802a"
     d=" M 34.84 12.95 C 43.68 7.99 54.10 7.12 64.04 7.16 C 73.96 7.12 84.34 8.00 93.16 12.94 C 93.20 14.23 93.25 15.52 93.30 16.81 C 80.67 23.34 65.84 24.20 51.97 22.28 C 45.91 21.58 40.14 19.50 34.70 16.81 C 34.75 15.52 34.79 14.23 34.84 12.95 Z"
     id="path8" />
  <path
     fill="#ff6700"
     d=" M 34.70 16.81 C 40.14 19.50 45.91 21.58 51.97 22.28 C 65.84 24.20 80.67 23.34 93.30 16.81 C 93.33 18.83 93.37 20.85 93.41 22.88 C 81.43 30.54 66.59 31.96 52.79 29.87 C 46.32 28.78 40.21 26.22 34.59 22.88 C 34.63 20.85 34.67 18.83 34.70 16.81 Z"
     id="path10" />
  <path
     fill="#ffffff"
     d=" M 26.58 27.54 C 25.05 23.54 29.79 21.04 32.63 19.34 C 32.96 20.92 32.17 23.09 33.72 24.16 C 45.14 32.02 59.65 33.46 73.11 31.96 C 80.99 30.85 88.84 28.23 95.25 23.41 C 95.27 22.38 95.29 20.33 95.30 19.30 C 98.06 20.99 102.22 23.04 101.70 26.89 C 100.47 29.83 97.43 31.43 94.72 32.78 C 87.67 36.41 79.63 36.94 71.90 37.97 C 62.03 39.48 52.09 37.53 42.36 35.94 C 36.66 34.44 30.18 32.55 26.58 27.54 Z"
     id="path12" />
  <path
     fill="#ff6700"
     d=" M 63.97 40.35 C 74.16 39.55 84.71 38.97 94.26 34.97 C 94.30 36.63 94.36 38.29 94.42 39.96 C 75.84 50.01 52.17 50.01 33.59 39.97 C 33.64 38.30 33.69 36.64 33.74 34.97 C 43.27 38.98 53.79 39.53 63.97 40.35 Z"
     id="path14" />
  <path
     fill="#0e0e08"
     d=" M 37.01 61.92 C 54.09 58.25 71.94 58.19 89.09 61.50 C 95.69 62.92 102.52 64.82 107.79 69.26 C 109.15 69.98 108.75 71.67 108.83 72.94 C 108.58 79.01 108.33 85.10 107.54 91.13 C 106.93 96.97 104.55 102.41 103.38 108.14 C 100.23 111.33 96.43 113.82 92.22 115.36 C 79.71 120.12 66.05 120.19 52.88 119.29 C 42.81 118.04 31.95 115.73 24.62 108.14 C 23.24 101.70 20.58 95.55 20.20 88.92 C 19.66 82.66 18.95 76.32 19.38 70.06 C 24.15 65.46 30.70 63.41 37.01 61.92 Z"
     id="path16" />
  <path
     fill="#ffd700"
     d=" M 42.12 62.60 C 57.93 59.92 74.21 60.16 89.93 63.39 C 96.14 64.73 102.41 66.79 107.31 70.99 C 106.98 73.73 107.91 77.43 105.13 79.15 C 100.74 82.44 95.40 84.09 90.23 85.71 C 88.26 85.77 86.28 85.80 84.31 85.84 C 84.31 84.27 84.31 82.70 84.31 81.13 C 88.15 81.12 92.01 81.42 95.83 80.88 C 96.10 79.18 96.16 77.45 96.27 75.74 C 89.97 75.69 83.67 75.72 77.38 75.70 C 77.29 79.91 77.30 84.11 77.31 88.31 C 75.02 88.62 72.73 88.92 70.45 89.34 C 70.46 84.80 70.41 80.26 70.42 75.72 C 68.11 75.71 65.80 75.71 63.49 75.70 C 63.40 80.42 63.44 85.14 63.43 89.86 C 61.34 89.67 59.26 89.50 57.18 89.23 C 57.16 88.79 57.12 87.92 57.09 87.48 C 53.57 87.45 50.04 87.56 46.51 87.46 C 43.96 87.12 41.46 86.56 38.95 86.03 C 39.08 85.48 39.35 84.37 39.48 83.82 C 43.15 78.03 51.13 80.08 56.27 82.51 C 55.97 80.67 56.58 78.48 55.44 76.87 C 47.90 73.86 36.59 74.24 32.73 82.66 L 32.07 83.88 C 28.32 82.28 24.22 80.87 21.43 77.75 C 20.58 75.61 20.87 73.24 20.69 70.99 C 26.67 65.88 34.55 63.94 42.12 62.60 Z"
     id="path18" />
  <path
     fill="#ff0000"
     d=" M 32.73 82.66 C 36.59 74.24 47.90 73.86 55.44 76.87 C 56.58 78.48 55.97 80.67 56.27 82.51 C 51.13 80.08 43.15 78.03 39.48 83.82 C 38.97 85.02 38.55 86.25 38.24 87.51 C 38.45 90.49 38.55 93.91 40.94 96.07 C 43.53 98.57 47.38 98.27 50.65 97.72 C 50.64 95.91 50.63 94.10 50.62 92.29 C 49.24 92.29 47.85 92.29 46.47 92.29 C 46.49 90.68 46.50 89.07 46.51 87.46 C 50.04 87.56 53.57 87.45 57.09 87.48 C 57.12 87.92 57.16 88.79 57.18 89.23 C 57.19 89.69 57.21 90.60 57.22 91.05 C 57.21 94.20 57.16 97.34 57.21 100.49 C 52.08 102.78 46.21 103.59 40.71 102.25 C 36.40 101.08 32.88 97.54 31.90 93.16 C 31.30 89.67 31.53 86.00 32.73 82.66 Z"
     id="path20" />
  <path
     fill="#0d0e00"
     d=" M 63.43 89.86 C 63.44 85.14 63.40 80.42 63.49 75.70 C 63.62 84.60 63.62 93.51 63.49 102.42 C 63.42 98.81 63.43 95.20 63.43 91.59 C 61.36 91.41 59.29 91.23 57.22 91.05 C 57.21 90.60 57.19 89.69 57.18 89.23 C 59.26 89.50 61.34 89.67 63.43 89.86 Z"
     id="path22" />
  <path
     fill="#ff0000"
     d=" M 63.49 75.70 C 65.80 75.71 68.11 75.71 70.42 75.72 C 70.41 80.26 70.46 84.80 70.45 89.34 C 70.45 89.73 70.44 90.52 70.44 90.91 C 70.43 94.74 70.44 98.57 70.43 102.40 C 68.11 102.40 65.80 102.41 63.49 102.42 C 63.62 93.51 63.62 84.60 63.49 75.70 Z"
     id="path24" />
  <path
     fill="#0d0e00"
     d=" M 77.31 88.31 C 77.30 84.11 77.29 79.91 77.38 75.70 C 77.50 84.61 77.52 93.52 77.37 102.42 C 77.29 98.32 77.31 94.22 77.31 90.12 C 75.02 90.38 72.73 90.65 70.44 90.91 C 70.44 90.52 70.45 89.73 70.45 89.34 C 72.73 88.92 75.02 88.62 77.31 88.31 Z"
     id="path26" />
  <path
     fill="#ff0000"
     d=" M 77.38 75.70 C 83.67 75.72 89.97 75.69 96.27 75.74 C 96.16 77.45 96.10 79.18 95.83 80.88 C 92.01 81.42 88.15 81.12 84.31 81.13 C 84.31 82.70 84.31 84.27 84.31 85.84 C 86.28 85.80 88.26 85.77 90.23 85.71 C 91.99 85.73 93.74 85.77 95.50 85.83 C 95.49 87.63 95.49 89.43 95.48 91.23 C 91.76 91.23 88.04 91.24 84.31 91.24 C 84.32 94.96 84.31 98.67 84.31 102.40 C 82.00 102.40 79.68 102.41 77.37 102.42 C 77.52 93.52 77.50 84.61 77.38 75.70 Z"
     id="path28" />
  <path
     fill="#fff900"
     d=" M 21.21 80.14 C 24.41 82.42 27.96 84.14 31.63 85.53 C 31.53 88.07 31.17 90.68 31.90 93.16 C 32.88 97.54 36.40 101.08 40.71 102.25 C 46.21 103.59 52.08 102.78 57.21 100.49 C 57.16 97.34 57.21 94.20 57.22 91.05 C 59.29 91.23 61.36 91.41 63.43 91.59 C 63.43 95.20 63.42 98.81 63.49 102.42 C 65.80 102.41 68.11 102.40 70.43 102.40 C 70.44 98.57 70.43 94.74 70.44 90.91 C 72.73 90.65 75.02 90.38 77.31 90.12 C 77.31 94.22 77.29 98.32 77.37 102.42 C 79.68 102.41 82.00 102.40 84.31 102.40 C 84.31 98.67 84.32 94.96 84.31 91.24 C 88.04 91.24 91.76 91.23 95.48 91.23 C 95.49 89.43 95.49 87.63 95.50 85.83 C 99.49 84.41 103.34 82.61 106.79 80.13 C 106.66 89.51 104.63 98.72 101.53 107.52 C 98.56 110.84 94.39 112.81 90.27 114.30 C 81.21 117.45 71.50 118.16 61.98 118.16 C 50.47 117.60 38.05 116.49 28.47 109.44 C 25.34 107.55 25.47 103.58 24.35 100.50 C 22.09 93.95 21.58 87.00 21.21 80.14 Z"
     id="path30" />
  <path
     fill="#0d0e00"
     d=" M 38.24 87.51 C 38.55 86.25 38.97 85.02 39.48 83.82 C 39.35 84.37 39.08 85.48 38.95 86.03 C 41.46 86.56 43.96 87.12 46.51 87.46 C 46.50 89.07 46.49 90.68 46.47 92.29 C 46.42 91.30 46.37 90.31 46.32 89.32 C 43.63 88.72 40.93 88.12 38.24 87.51 Z"
     id="path32" />
  <path
     fill="#fff900"
     d=" M 38.24 87.51 C 40.93 88.12 43.63 88.72 46.32 89.32 C 46.37 90.31 46.42 91.30 46.47 92.29 C 47.85 92.29 49.24 92.29 50.62 92.29 C 50.63 94.10 50.64 95.91 50.65 97.72 C 47.38 98.27 43.53 98.57 40.94 96.07 C 38.55 93.91 38.45 90.49 38.24 87.51 Z"
     id="path34" />
  <path
     style="fill:#ffffff"
     d="m 114.71186,144.60568 c 5.86428,-2.2355 10.69956,-5.14885 13.31942,-8.02519 1.42593,-1.56551 4.82386,-12.53495 6.27008,-20.24151 0.68523,-3.65139 2.10542,-21.251283 2.10542,-26.091617 0,-3.021791 -1.68473,-4.712008 -7.98546,-8.011455 -5.43769,-2.847501 -14.56905,-5.396627 -25.23488,-7.044607 -11.939362,-1.844755 -36.674855,-1.663915 -48.474576,0.354394 -14.259285,2.439011 -21.951503,5.16699 -28.644067,10.15837 -2.189164,1.6327 -2.203375,1.681092 -2.201074,7.495046 0.0051,12.811609 1.93376,25.808569 5.807019,39.132119 0.881236,3.03134 1.598227,3.97993 4.882461,6.45955 2.117248,1.59854 6.145537,3.90897 8.951754,5.1343 5.924461,2.58689 4.848621,2.99129 -1.66651,0.62642 -8.093795,-2.93789 -11.680693,-6.24092 -15.912526,-14.65319 -2.702357,-5.3719 -3.902717,-9.55192 -5.086904,-17.71413 -1.227013,-8.45741 -1.32429,-15.063709 -0.321254,-21.817025 1.677373,-11.293537 5.515421,-21.277594 11.618206,-30.222872 4.330186,-6.347054 5.216938,-8.730232 5.255002,-14.123005 0.02443,-3.461651 0.211718,-4.146186 1.046707,-3.82577 0.755508,0.289915 1.016949,1.491711 1.016949,4.674728 l 0,4.284489 3.573473,2.044534 c 7.253191,4.149855 20.597117,7.567548 33.714663,8.635119 5.74162,0.46728 17.693912,-0.977076 26.190567,-3.16496 2.93417,-0.755547 8.18956,-2.778084 11.67865,-4.494529 l 6.34379,-3.120808 -0.27299,-4.28735 c -0.20436,-3.209297 -0.0382,-4.377453 0.6608,-4.645684 1.56023,-0.598716 1.66696,-0.440542 1.24495,1.845055 -0.83786,4.537775 0.52325,9.014893 4.57104,15.035619 12.06156,17.940514 15.57399,37.131011 10.91798,59.651339 -1.22356,5.91814 -6.19974,16.21996 -9.44993,19.5635 -2.79274,2.87296 -8.37333,5.90525 -13.87231,7.53772 -6.13944,1.8226 -6.16526,1.18394 -0.0464,-1.1486 l 0,0 z"
     id="path3025"
     inkscape:connector-curvature="0"
     transform="scale(0.8,0.8)" />
  <path
     style="fill:#ffffff"
     d="M 67.932203,46.891984 C 57.437314,45.534724 52.571844,44.563853 47.072183,42.729508 38.90502,40.00545 33.355932,35.788153 33.355932,32.305182 c 0,-1.856842 2.96355,-5.232014 5.932204,-6.756158 1.442436,-0.740565 1.525423,-0.652325 1.525423,1.621984 0,2.165101 0.355251,2.628677 3.559322,4.644649 19.342758,12.170284 52.620526,12.017565 71.862209,-0.32979 2.81675,-1.807504 3.22254,-2.360794 3.22254,-4.393955 0,-2.654455 0.64973,-2.526816 4.55453,0.89474 4.54918,3.986185 3.0857,7.663511 -4.78512,12.023737 -5.33328,2.954496 -9.59154,4.195797 -20.108396,5.861677 -11.310795,1.791643 -22.411901,2.154693 -31.186441,1.019918 l 0,0 z"
     id="path3027"
     inkscape:connector-curvature="0"
     transform="scale(0.8,0.8)" />
</svg>
